<?xml version="1.0" encoding="UTF-8"?>
<svg id="Layer_2" data-name="Layer 2" xmlns="http://www.w3.org/2000/svg" viewBox="0 0 969.56 357.52">
  <defs>
    <style>
      .cls-1 {
        fill: #bdb889;
      }
    </style>
  </defs>
  <g id="Layer_1-2" data-name="Layer 1">
    <g>
      <g>
        <path class="cls-1" d="M50.39,88.74h33.49v4.85h-33.49v93.27c0,5.63.65,10.23,1.96,13.77,1.3,3.55,3.52,6.24,6.65,8.06,3.13,1.83,7.46,3.16,12.99,3.99v4.23H0v-4.23c7.2-1.25,12.08-3.7,14.63-7.36,2.56-3.65,3.83-9.81,3.83-18.47v-93.27H5.01v-4.85h13.46v-14.24c0-11.58.52-21.05,1.56-28.4,1.04-7.36,2.76-13.64,5.16-18.86,3.96-8.45,9.81-15.1,17.53-19.95C50.44,2.43,59.05,0,68.55,0c7.3,0,14.06,1.56,20.27,4.69,6.21,3.13,11.06,7.41,14.55,12.83,3.49,5.43,5.24,11.37,5.24,17.84,0,5.01-1.33,9-3.99,11.97-2.66,2.97-6.08,4.46-10.25,4.46s-7.36-1.46-9.86-4.38c-2.5-2.92-3.76-6.83-3.76-11.74l.31-7.67v-2.97c0-12.94-4.02-19.41-12.05-19.41-4.69,0-8.56,2.37-11.58,7.12-3.03,4.75-4.96,11.45-5.79,20.11-.84,7.83-1.25,20.09-1.25,36.78v19.09Z"/>
        <path class="cls-1" d="M168.55,203.41c-11.9,10.06-24.67,15.09-38.32,15.09-10.94,0-19.67-2.83-26.2-8.49s-9.8-13.08-9.8-22.28c0-13.06,6.39-23.32,19.16-30.77,12.77-7.45,31.15-11.66,55.15-12.63v-6.1c0-7.55-.34-13.72-1.02-18.5-.68-4.79-1.65-8.39-2.9-10.81-1.45-2.81-3.51-5.05-6.17-6.75-2.66-1.69-5.54-2.54-8.64-2.54-4.55,0-8.13,1.48-10.74,4.43-2.61,2.95-4.26,7.52-4.93,13.72-.78,6.1-2.03,10.23-3.77,12.41-1.74,2.18-4.74,3.27-9,3.27-3.29,0-6.05-1.16-8.27-3.48-2.23-2.32-3.34-5.32-3.34-9,0-4.94,1.79-9.41,5.37-13.43,3.58-4.01,8.54-7.18,14.88-9.51,6.34-2.32,13.28-3.48,20.83-3.48,9.77,0,18.33,1.96,25.69,5.88,7.35,3.92,12.82,9.36,16.4,16.33,1.93,3.58,3.31,7.6,4.14,12.05.82,4.45,1.23,10.6,1.23,18.43v41.8c0,8.03,1.18,13.74,3.56,17.13,2.37,3.39,6.84,5.66,13.43,6.82v3.92h-46.73v-13.5ZM119.35,37.08h29.32l11.18,38.03h-5.52l-34.98-38.03ZM168.55,197.02v-48.04c-9.39,1.45-17.44,3.87-24.17,7.26-6.73,3.39-11.88,7.69-15.46,12.92-3.58,5.22-5.37,10.98-5.37,17.27s1.91,11.68,5.73,15.89c3.82,4.21,8.64,6.31,14.44,6.31,7.16,0,15.43-3.87,24.82-11.61Z"/>
        <path class="cls-1" d="M270.15,112.85c7.45-6.29,14.34-10.79,20.68-13.5,6.34-2.71,13.43-4.06,21.26-4.06,8.32,0,15.89,1.43,22.71,4.28,6.82,2.85,12.82,6.87,18,12.05,5.18,5.18,9.19,11.18,12.05,18,2.85,6.82,4.28,14.39,4.28,22.71,0,9.1-1.62,17.63-4.86,25.62-3.24,7.98-7.81,15.17-13.72,21.55-5.9,6.39-12.75,11.37-20.54,14.95-7.79,3.58-15.84,5.37-24.17,5.37-13.84,0-26.8-5.37-38.9-16.11l-22.21,13.21h-4.35V48.84c0-8.03-1.21-13.79-3.63-17.27-2.42-3.48-6.87-5.71-13.35-6.68v-3.19l46.73-5.37v96.52ZM270.15,195.72c6.77,6.19,12.77,10.62,18,13.28,5.22,2.66,10.25,3.99,15.09,3.99,6.97,0,13.08-2.2,18.36-6.6,5.27-4.4,9.34-10.67,12.19-18.79,2.85-8.13,4.28-17.71,4.28-28.74,0-8.32-.8-15.94-2.39-22.86-1.6-6.92-3.92-12.96-6.97-18.14-3.05-5.17-6.68-9.17-10.89-11.97-4.21-2.81-8.78-4.21-13.72-4.21-5.32,0-10.69,1.62-16.11,4.86-5.42,3.24-11.37,8.35-17.85,15.31v73.87Z"/>
        <path class="cls-1" d="M425.01,112.85c7.45-6.29,14.34-10.79,20.68-13.5,6.34-2.71,13.43-4.06,21.26-4.06,8.32,0,15.89,1.43,22.71,4.28,6.82,2.85,12.82,6.87,18,12.05,5.17,5.18,9.19,11.18,12.05,18,2.85,6.82,4.28,14.39,4.28,22.71,0,9.1-1.62,17.63-4.86,25.62-3.24,7.98-7.81,15.17-13.72,21.55-5.9,6.39-12.75,11.37-20.54,14.95-7.79,3.58-15.84,5.37-24.17,5.37-13.84,0-26.8-5.37-38.9-16.11l-22.21,13.21h-4.35V48.84c0-8.03-1.21-13.79-3.63-17.27-2.42-3.48-6.87-5.71-13.35-6.68v-3.19l46.73-5.37v96.52ZM425.01,195.72c6.77,6.19,12.77,10.62,18,13.28,5.22,2.66,10.25,3.99,15.09,3.99,6.97,0,13.08-2.2,18.36-6.6,5.27-4.4,9.34-10.67,12.19-18.79,2.85-8.13,4.28-17.71,4.28-28.74,0-8.32-.8-15.94-2.39-22.86-1.6-6.92-3.92-12.96-6.97-18.14-3.05-5.17-6.68-9.17-10.88-11.97-4.21-2.81-8.78-4.21-13.72-4.21-5.32,0-10.69,1.62-16.11,4.86-5.42,3.24-11.37,8.35-17.85,15.31v73.87Z"/>
        <path class="cls-1" d="M584.8,123.88c5.61-10.83,10.67-18.41,15.17-22.71,4.5-4.3,9.7-6.46,15.6-6.46,7.35,0,13.5,2.9,18.43,8.71,4.93,5.81,7.4,13.01,7.4,21.62,0,5.52-1.14,9.77-3.41,12.77-2.27,3-5.49,4.5-9.65,4.5-3.58,0-6.48-1.21-8.71-3.63-2.23-2.42-3.34-5.52-3.34-9.29,0-1.74.24-3.68.73-5.81l1.31-5.52c.77-3.39,1.16-6.39,1.16-9s-.7-4.67-2.1-6.17c-1.4-1.5-3.27-2.25-5.59-2.25-2.71,0-5.37,1.04-7.98,3.12-2.61,2.08-5.4,5.42-8.35,10.01-2.95,4.6-6.51,11.01-10.67,19.23v56.02c0,8.03,1.43,13.74,4.28,17.13,2.85,3.39,8.1,5.66,15.75,6.82v3.92h-66.76v-3.92c6.58-1.16,11.08-3.41,13.5-6.75,2.42-3.34,3.63-9.07,3.63-17.2v-60.96c0-8.13-1.23-13.91-3.7-17.34-2.47-3.43-6.94-5.64-13.42-6.6v-3.19l46.73-5.37v28.3Z"/>
        <path class="cls-1" d="M646.92,216.91v-3.92c6.58-1.16,11.08-3.41,13.5-6.75,2.42-3.34,3.63-9.07,3.63-17.2v-60.96c0-8.13-1.23-13.91-3.7-17.34-2.47-3.43-6.94-5.64-13.42-6.6v-3.19l46.73-5.37v93.47c0,8.03,1.18,13.74,3.56,17.13,2.37,3.39,6.84,5.66,13.42,6.82v3.92h-63.71ZM660.13,55.95c0-4.84,1.64-8.95,4.93-12.34,3.29-3.39,7.4-5.08,12.34-5.08s9.05,1.69,12.34,5.08c3.29,3.39,4.93,7.5,4.93,12.34s-1.65,9.05-4.93,12.34c-3.29,3.29-7.4,4.93-12.34,4.93s-9.05-1.64-12.34-4.93c-3.29-3.29-4.93-7.4-4.93-12.34Z"/>
        <path class="cls-1" d="M831.68,187.59l3.34,4.06c-6.39,7.16-12.26,12.8-17.63,16.91-5.37,4.11-10.81,7.04-16.33,8.78-5.52,1.74-11.85,2.61-19.01,2.61-11.32,0-21.43-2.44-30.33-7.33-8.9-4.88-15.87-11.8-20.9-20.75-5.03-8.95-7.55-18.94-7.55-29.97,0-9,1.69-17.66,5.08-25.98,3.39-8.32,8.03-15.53,13.93-21.62,5.9-6.1,12.94-10.86,21.12-14.3,8.18-3.43,16.71-5.15,25.62-5.15,8.22,0,15.92,1.52,23.08,4.57,7.16,3.05,12.84,7.14,17.05,12.26,4.21,5.13,6.31,10.74,6.31,16.84,0,3.97-1.19,7.33-3.56,10.09-2.37,2.76-5.35,4.14-8.93,4.14-5.23,0-9.14-2.51-11.76-7.55-1.16-2.22-2.08-6.63-2.76-13.21-.78-6.48-2.03-11.13-3.77-13.93-1.55-2.61-3.77-4.67-6.68-6.17-2.9-1.5-6.19-2.25-9.87-2.25-6.68,0-12.58,2.32-17.71,6.97-5.13,4.64-9.07,11.13-11.83,19.45-2.76,8.32-4.14,18-4.14,29.03s1.6,20.68,4.79,29.24c3.19,8.56,7.67,15.14,13.42,19.74,5.76,4.6,12.46,6.89,20.1,6.89,4.35,0,8.56-.8,12.63-2.39,4.06-1.6,8.29-4.16,12.7-7.69,4.4-3.53,8.93-7.96,13.57-13.28Z"/>
        <path class="cls-1" d="M922.82,203.41c-11.9,10.06-24.67,15.09-38.32,15.09-10.94,0-19.67-2.83-26.2-8.49s-9.8-13.08-9.8-22.28c0-13.06,6.39-23.32,19.16-30.77,12.77-7.45,31.15-11.66,55.15-12.63v-6.1c0-7.55-.34-13.72-1.02-18.5-.68-4.79-1.65-8.39-2.9-10.81-1.45-2.81-3.51-5.05-6.17-6.75-2.66-1.69-5.54-2.54-8.64-2.54-4.55,0-8.13,1.48-10.74,4.43-2.61,2.95-4.26,7.52-4.93,13.72-.78,6.1-2.03,10.23-3.77,12.41-1.74,2.18-4.74,3.27-9,3.27-3.29,0-6.05-1.16-8.27-3.48-2.23-2.32-3.34-5.32-3.34-9,0-4.94,1.79-9.41,5.37-13.43,3.58-4.01,8.54-7.18,14.88-9.51,6.34-2.32,13.28-3.48,20.83-3.48,9.77,0,18.33,1.96,25.69,5.88,7.35,3.92,12.82,9.36,16.4,16.33,1.93,3.58,3.31,7.6,4.14,12.05.82,4.45,1.23,10.6,1.23,18.43v41.8c0,8.03,1.18,13.74,3.56,17.13,2.37,3.39,6.84,5.66,13.43,6.82v3.92h-46.73v-13.5ZM922.82,197.02v-48.04c-9.39,1.45-17.44,3.87-24.17,7.26-6.73,3.39-11.88,7.69-15.46,12.92-3.58,5.22-5.37,10.98-5.37,17.27s1.91,11.68,5.73,15.89c3.82,4.21,8.64,6.31,14.44,6.31,7.16,0,15.43-3.87,24.82-11.61Z"/>
      </g>
      <g>
        <path class="cls-1" d="M147.87,301.54c0-1.13.59-1.72,1.76-1.72h1.26c1.22,0,1.85.59,1.85,1.72v5.25c1.47-2.48,5.46-7.94,15.33-7.94,10.96,0,19.74,9.53,19.74,21.46s-8.78,21.46-19.74,21.46c-7.77,0-12.77-4.32-15.33-9.7v23.81c0,1.01-.63,1.64-1.81,1.64h-1.22c-1.18,0-1.85-.63-1.85-1.64v-54.34ZM167.73,337.06c8.31,0,15.2-7.56,15.2-16.8s-6.89-16.8-15.2-16.8-15.29,7.56-15.29,16.8,7.01,16.8,15.29,16.8Z"/>
        <path class="cls-1" d="M197.71,301.96c0-1.3.63-1.93,1.85-1.93h.92c1.39,0,2.06.63,2.06,1.93v4.37c1.6-4.07,5.75-6.89,11-6.89,3.36,0,8.94,1.97,8.94,3.86,0,1.13-1.55,3.19-2.23,3.19-.46,0-.63,0-.97-.21-1.64-1.01-3.86-2.02-6.05-2.02-6.21,0-10.71,6.21-10.71,12.72l.04,22.72c0,1.01-.5,1.51-1.55,1.51h-1.72c-1.05,0-1.6-.5-1.6-1.51v-37.75Z"/>
        <path class="cls-1" d="M258.55,334.34c.71-.55,1.72-1.39,2.35-1.51.84,0,2.23,1.97,2.23,3.32-.5.84-1.39,1.6-2.18,2.14-3.53,2.39-7.6,3.86-12.35,3.86-11.93,0-21.5-9.53-21.5-21.42s9.32-21.5,20.7-21.5,20.03,9.03,20.03,20.95c0,1.81-1.18,2.14-2.81,2.14h-33.17c.67,8.61,7.94,15.24,16.67,15.24,3.7,0,7.18-1.09,10.04-3.23ZM263.21,318.17c-.88-7.98-7.47-14.32-15.45-14.32s-14.7,6.21-15.92,14.32h31.37Z"/>
        <path class="cls-1" d="M283.11,339.71c0,1.01-.5,1.51-1.55,1.51h-1.72c-1.05,0-1.6-.5-1.6-1.51v-38.46c0-.8.46-1.34,1.3-1.34h2.48c.59,0,.92.29.97.92l.13,5c2.48-3.48,6.21-6.3,11.34-6.3,6.38,0,11.3,3.65,13.65,8.65,2.35-5.21,6.97-8.73,13.14-8.73,7.94,0,14.11,5.92,14.99,13.61.17,1.47.25,2.94.25,4.41v22.09c0,1.13-.67,1.68-1.68,1.68h-1.51c-1.13,0-1.72-.55-1.72-1.64v-24.36c-.13-6.09-4.37-10.96-10.5-10.96-5.29,0-9.83,3.78-10.83,8.86-.29,1.34-.46,2.73-.46,4.2v22.21c0,1.13-.55,1.68-1.6,1.68h-1.68c-1.05,0-1.6-.55-1.6-1.64v-24.48c-.13-6.05-4.83-10.83-10.79-10.83s-11,4.91-11,11.09v24.36Z"/>
        <path class="cls-1" d="M351.67,284.07c2.02,0,3.65,1.64,3.65,3.65s-1.64,3.65-3.65,3.65-3.65-1.64-3.65-3.65,1.64-3.65,3.65-3.65ZM349.27,301.62c0-.96.63-1.55,1.6-1.55h1.51c1.01,0,1.55.59,1.55,1.55v38.09c0,1.01-.5,1.51-1.55,1.51h-1.47c-1.09,0-1.64-.5-1.64-1.51v-38.09Z"/>
        <path class="cls-1" d="M400.29,339.67c0,.97-.63,1.55-1.6,1.55h-1.3c-1.01,0-1.51-.59-1.55-1.55-.13-1.64-.17-3.23-.21-4.87-2.65,4.33-7.73,7.39-13.4,7.39-9.57,0-16.75-7.64-16.75-17.3v-23.14c0-1.05.67-1.68,1.64-1.68h1.47c1.18,0,1.55.59,1.55,1.64v23.35c.13,7.05,5.29,12.56,12.72,12.56,6.97,0,12.77-5.5,12.77-12.51v-23.47c0-1.05.5-1.55,1.55-1.55h1.47c1.09,0,1.64.5,1.64,1.55v38.04Z"/>
        <path class="cls-1" d="M418.72,339.71c0,1.01-.5,1.51-1.55,1.51h-1.72c-1.05,0-1.6-.5-1.6-1.51v-38.46c0-.8.46-1.34,1.3-1.34h2.48c.59,0,.92.29.97.92l.13,5c2.48-3.48,6.21-6.3,11.34-6.3,6.38,0,11.3,3.65,13.65,8.65,2.35-5.21,6.97-8.73,13.14-8.73,7.94,0,14.11,5.92,14.99,13.61.17,1.47.25,2.94.25,4.41v22.09c0,1.13-.67,1.68-1.68,1.68h-1.51c-1.13,0-1.72-.55-1.72-1.64v-24.36c-.13-6.09-4.37-10.96-10.5-10.96-5.29,0-9.83,3.78-10.83,8.86-.29,1.34-.46,2.73-.46,4.2v22.21c0,1.13-.55,1.68-1.6,1.68h-1.68c-1.05,0-1.6-.55-1.6-1.64v-24.48c-.13-6.05-4.83-10.83-10.79-10.83s-11,4.91-11,11.09v24.36Z"/>
        <path class="cls-1" d="M528.09,280.46v1.26c0,1.05-.76,1.64-1.6,1.64h-.25c-4.87,0-8.02,1.13-8.02,8.65v8.06h7.31c.97,0,1.64.5,1.64,1.68v.96c0,1.13-.67,1.81-1.64,1.81h-7.31v35.15c0,1.05-.76,1.64-1.72,1.64h-1.39c-1.05,0-1.6-.67-1.6-1.64v-35.15h-5.12c-1.01,0-1.6-.67-1.6-1.81v-.96c0-1.13.55-1.68,1.6-1.68h5.12v-8.27c0-8.36,3.99-13.1,11.34-13.1.5,0,1.01,0,1.51.04,1.13.08,1.72.67,1.72,1.72Z"/>
        <path class="cls-1" d="M570.12,339.67c0,.97-.63,1.55-1.6,1.55h-1.3c-1.01,0-1.51-.59-1.55-1.55-.13-1.64-.17-3.23-.21-4.87-2.65,4.33-7.73,7.39-13.4,7.39-9.57,0-16.75-7.64-16.75-17.3v-23.14c0-1.05.67-1.68,1.64-1.68h1.47c1.18,0,1.55.59,1.55,1.64v23.35c.13,7.05,5.29,12.56,12.72,12.56,6.97,0,12.77-5.5,12.77-12.51v-23.47c0-1.05.5-1.55,1.55-1.55h1.47c1.09,0,1.64.5,1.64,1.55v38.04Z"/>
        <path class="cls-1" d="M583.38,301.96c0-1.3.63-1.93,1.85-1.93h.92c1.39,0,2.06.63,2.06,1.93v4.37c1.6-4.07,5.75-6.89,11-6.89,3.36,0,8.94,1.97,8.94,3.86,0,1.13-1.55,3.19-2.23,3.19-.46,0-.63,0-.97-.21-1.64-1.01-3.86-2.02-6.05-2.02-6.21,0-10.71,6.21-10.71,12.72l.04,22.72c0,1.01-.5,1.51-1.55,1.51h-1.72c-1.05,0-1.6-.5-1.6-1.51v-37.75Z"/>
        <path class="cls-1" d="M621.97,339.71c0,1.01-.5,1.51-1.55,1.51h-1.72c-1.05,0-1.6-.5-1.6-1.51v-38.46c0-.8.46-1.34,1.3-1.34h2.48c.5,0,.92.38.97.92l.13,5.71c2.81-4.16,7.73-7.35,13.4-7.35,9.57,0,16.92,7.69,16.92,17.34v23.01c0,1.13-.63,1.68-1.64,1.68h-1.72c-1.13,0-1.51-.5-1.51-1.64v-23.14c-.13-6.93-5.71-12.43-12.56-12.43s-12.56,5.21-12.89,12.05v23.64Z"/>
        <path class="cls-1" d="M665.97,284.07c2.02,0,3.65,1.64,3.65,3.65s-1.64,3.65-3.65,3.65-3.65-1.64-3.65-3.65,1.64-3.65,3.65-3.65ZM663.57,301.62c0-.96.63-1.55,1.6-1.55h1.51c1.01,0,1.55.59,1.55,1.55v38.09c0,1.01-.5,1.51-1.55,1.51h-1.47c-1.09,0-1.64-.5-1.64-1.51v-38.09Z"/>
        <path class="cls-1" d="M696.11,336.94c.97,0,1.76.5,1.76,1.64v1.39c0,1.3-.84,1.64-1.97,1.64h-1.26c-5.71,0-10.08-.8-10.08-9.99v-27h-5.79c-1.13,0-1.64-.38-1.64-1.51v-1.55c0-1.13.5-1.51,1.64-1.51h5.79v-12.39c0-.84.46-1.34,1.39-1.47l2.1-.29c1.13,0,1.43.76,1.43,1.76v12.39h7.26c1.01,0,1.64.46,1.64,1.6v1.39c0,1.13-.63,1.6-1.64,1.6h-7.26v25.87c0,5.92,1.55,6.13,5.08,6.47h1.55Z"/>
        <path class="cls-1" d="M740.75,339.67c0,.97-.63,1.55-1.6,1.55h-1.3c-1.01,0-1.51-.59-1.55-1.55-.13-1.64-.17-3.23-.21-4.87-2.65,4.33-7.73,7.39-13.4,7.39-9.57,0-16.75-7.64-16.75-17.3v-23.14c0-1.05.67-1.68,1.64-1.68h1.47c1.18,0,1.55.59,1.55,1.64v23.35c.13,7.05,5.29,12.56,12.72,12.56,6.97,0,12.77-5.5,12.77-12.51v-23.47c0-1.05.5-1.55,1.55-1.55h1.47c1.09,0,1.64.5,1.64,1.55v38.04Z"/>
        <path class="cls-1" d="M754.01,301.96c0-1.3.63-1.93,1.85-1.93h.92c1.39,0,2.06.63,2.06,1.93v4.37c1.6-4.07,5.75-6.89,11-6.89,3.36,0,8.94,1.97,8.94,3.86,0,1.13-1.55,3.19-2.23,3.19-.46,0-.63,0-.97-.21-1.64-1.01-3.86-2.02-6.05-2.02-6.21,0-10.71,6.21-10.71,12.72l.04,22.72c0,1.01-.5,1.51-1.55,1.51h-1.72c-1.05,0-1.6-.5-1.6-1.51v-37.75Z"/>
        <path class="cls-1" d="M814.85,334.34c.71-.55,1.72-1.39,2.35-1.51.84,0,2.23,1.97,2.23,3.32-.5.84-1.39,1.6-2.18,2.14-3.53,2.39-7.6,3.86-12.35,3.86-11.93,0-21.5-9.53-21.5-21.42s9.32-21.5,20.7-21.5,20.03,9.03,20.03,20.95c0,1.81-1.18,2.14-2.81,2.14h-33.17c.67,8.61,7.94,15.24,16.67,15.24,3.7,0,7.18-1.09,10.04-3.23ZM819.51,318.17c-.88-7.98-7.47-14.32-15.45-14.32s-14.7,6.21-15.92,14.32h31.37Z"/>
      </g>
    </g>
  </g>
</svg>